<svg width="64" height="64" viewBox="0 0 64 64" fill="none" xmlns="http://www.w3.org/2000/svg">
  <defs>
    <linearGradient id="gradient-circle" x1="0%" y1="0%" x2="100%" y2="100%">
      <stop offset="0%" style="stop-color:#0078FF;stop-opacity:1" />
      <stop offset="33%" style="stop-color:#00C896;stop-opacity:1" />
      <stop offset="66%" style="stop-color:#FFDC00;stop-opacity:1" />
      <stop offset="100%" style="stop-color:#0078FF;stop-opacity:1" />
    </linearGradient>
  </defs>

  <!-- Outer ring of gradient dots -->
  <circle cx="32" cy="8" r="2.5" fill="url(#gradient-circle)">
    <animate attributeName="opacity" values="0.5;1;0.5" dur="3s" repeatCount="indefinite" begin="0s"/>
  </circle>
  <circle cx="40" cy="10" r="2.5" fill="#FFDC00"/>
  <circle cx="47" cy="14" r="2.5" fill="#FFDC00"/>
  <circle cx="52" cy="20" r="2.5" fill="#FFDC00"/>
  <circle cx="56" cy="28" r="2.5" fill="#D4E800"/>
  <circle cx="58" cy="36" r="2.5" fill="#50DC50"/>
  <circle cx="56" cy="44" r="2.5" fill="#00C896"/>
  <circle cx="52" cy="50" r="2.5" fill="#00C896"/>
  <circle cx="47" cy="54" r="2.5" fill="#00B4A0"/>
  <circle cx="40" cy="58" r="2.5" fill="#00A0AA"/>
  <circle cx="32" cy="60" r="2.5" fill="#008CB4"/>
  <circle cx="24" cy="58" r="2.5" fill="#0078BE"/>
  <circle cx="17" cy="54" r="2.5" fill="#0078FF"/>
  <circle cx="12" cy="50" r="2.5" fill="#0078FF"/>
  <circle cx="8" cy="44" r="2.5" fill="#0064DC"/>
  <circle cx="6" cy="36" r="2.5" fill="#0064C8"/>
  <circle cx="8" cy="28" r="2.5" fill="#0078DC"/>
  <circle cx="12" cy="20" r="2.5" fill="#008CEB"/>
  <circle cx="17" cy="14" r="2.5" fill="#00A0F5"/>
  <circle cx="24" cy="10" r="2.5" fill="#00B4FF"/>

  <!-- Middle ring -->
  <circle cx="32" cy="16" r="2" fill="#50C8FF"/>
  <circle cx="42" cy="18" r="2" fill="#F0DC00"/>
  <circle cx="48" cy="24" r="2" fill="#B4E800"/>
  <circle cx="50" cy="32" r="2" fill="#64DC64"/>
  <circle cx="48" cy="40" r="2" fill="#00C896"/>
  <circle cx="42" cy="46" r="2" fill="#00A0BE"/>
  <circle cx="32" cy="48" r="2" fill="#0078DC"/>
  <circle cx="22" cy="46" r="2" fill="#0078FF"/>
  <circle cx="16" cy="40" r="2" fill="#0064DC"/>
  <circle cx="14" cy="32" r="2" fill="#0078E6"/>
  <circle cx="16" cy="24" r="2" fill="#00A0FF"/>
  <circle cx="22" cy="18" r="2" fill="#00B4FF"/>

  <!-- Inner ring -->
  <circle cx="32" cy="24" r="1.5" fill="#78D2FF"/>
  <circle cx="38" cy="26" r="1.5" fill="#DCE800"/>
  <circle cx="40" cy="32" r="1.5" fill="#8CEC8C"/>
  <circle cx="38" cy="38" r="1.5" fill="#00DCB4"/>
  <circle cx="32" cy="40" r="1.5" fill="#0096E6"/>
  <circle cx="26" cy="38" r="1.5" fill="#0078FF"/>
  <circle cx="24" cy="32" r="1.5" fill="#0078F0"/>
  <circle cx="26" cy="26" r="1.5" fill="#00B4FF"/>

  <!-- Center -->
  <circle cx="32" cy="32" r="3" fill="#00A0DC"/>
</svg>
